<!--?xml version="1.0" encoding="utf-8"?-->
<!-- Generator: Adobe Illustrator 18.1.1, SVG Export Plug-In . SVG Version: 6.00 Build 0)  -->

<svg version="1.1" id="_x32_" xmlns="http://www.w3.org/2000/svg" xmlns:xlink="http://www.w3.org/1999/xlink" x="0px" y="0px" viewBox="0 0 512 512" style="width: 256px; height: 256px; opacity: 1;" xml:space="preserve">
<style type="text/css">
	.st0{fill:#4B4B4B;}
</style>
<g>
	<path class="st0" d="M474.457,202.594c-2.362,0-4.65,0.248-6.914,0.647L331.808,58.746c0.766-2.956,1.175-5.997,1.175-9.191
		c0-20.713-16.808-37.521-37.521-37.521c-20.734,0-37.542,16.808-37.542,37.521c0,2.999,0.388,5.922,1.078,8.717l-22.201,23.032
		L199.999,43.88L51.157,137.261l48.88,49.722c-5.394,14.639-2.417,31.674,9.234,43.53c11.673,11.856,28.664,15.135,43.39,9.978
		l48.88,49.722l95.916-147.236l-32.31-32.849l22.914-23.766c2.384,0.496,4.876,0.734,7.4,0.734c2.363,0,4.672-0.238,6.904-0.69
		l135.746,144.517c-0.744,2.955-1.186,6.02-1.186,9.191c0,9.127,3.246,17.476,8.673,23.993l-45.87,151.701H196.666
		c-23.248,0-42.096,18.814-42.096,42.062c0,23.248,18.847,42.096,42.096,42.096h207.42c23.237,0,42.062-18.847,42.062-42.096
		c0-9.795-3.484-18.696-9.094-25.838l47.058-155.692C500.154,272.09,512,257.484,512,240.114
		C512,219.401,495.192,202.594,474.457,202.594z M295.462,67.517c-9.924,0-17.962-8.038-17.962-17.962
		c0-9.904,8.038-17.93,17.962-17.93c9.904,0,17.94,8.027,17.94,17.93C313.403,59.479,305.366,67.517,295.462,67.517z
		 M474.457,258.087c-9.902,0-17.94-8.069-17.94-17.972c0-9.904,8.038-17.962,17.94-17.962c9.926,0,17.962,8.059,17.962,17.962
		C492.419,250.018,484.383,258.087,474.457,258.087z" style="fill: rgb(221, 255, 0);"></path>
	<path class="st0" d="M119.348,283.439c-4.25,0-7.692,3.441-7.692,7.692v42.343c0,4.272,3.442,7.713,7.692,7.713
		c4.251,0,7.692-3.441,7.692-7.713v-42.343C127.04,286.88,123.599,283.439,119.348,283.439z" style="fill: 		C492.419,250.018,484.383,258.087,474.457,258.087z" style="fill: rgb(221, 255, 0);"></path>
;"></path>
	<path class="st0" d="M57.749,221.84c0-4.251-3.442-7.703-7.692-7.703H7.692c-4.25,0-7.692,3.452-7.692,7.703
		c0,4.251,3.442,7.681,7.714,7.681h42.343C54.307,229.52,57.749,226.09,57.749,221.84z" style="fill: rgb		C492.419,250.018,484.383,258.087,474.457,258.087z" style="fill: rgb(221, 255, 0);"></path>
;"></path>
	<path class="st0" d="M64.901,265.402l-29.936,29.925c-3.022,2.999-3.022,7.876-0.022,10.897c3.022,3.02,7.886,3.02,10.907,0
		l29.937-29.958c3.02-2.999,3.02-7.866,0-10.864C72.787,262.38,67.922,262.38,64.901,265.402z" style="fill: rgb		C492.419,250.018,484.383,258.087,474.457,258.087z" style="fill: rgb(221, 255, 0);"></path>
;"></path>
</g>
</svg>
